<svg width="1080" height="1400" viewBox="0 0 1080 1400" fill="none" xmlns="http://www.w3.org/2000/svg">
<g clip-path="url(#clip0_806_1527)">
<path d="M668.767 130.197C673.247 129.157 677.647 128.117 682.127 126.917C685.807 125.957 687.087 127.237 686.127 130.917C685.807 132.117 685.407 133.317 684.687 134.277C675.727 146.197 659.647 152.997 644.687 146.677C636.527 143.237 627.967 139.877 621.007 134.597C605.327 122.837 600.207 106.677 605.007 87.4768C610.687 64.677 623.967 47.637 643.647 34.997C660.767 23.957 679.647 19.7169 699.407 19.3969C714.767 19.0769 730.127 20.2769 744.927 25.3969C748.687 26.6769 752.607 27.557 756.287 28.917C759.247 30.037 761.327 29.557 763.647 27.237C770.447 20.597 777.007 13.557 784.687 8.03696C796.047 -0.123072 809.088 -1.0031 823.008 0.756899C837.488 2.5969 850.608 7.07693 862.048 15.797C872.368 23.637 878.688 34.197 878.528 47.717C878.448 54.357 873.568 61.077 867.168 63.157C865.728 63.637 863.488 63.717 862.448 62.917C861.728 62.357 861.808 59.7969 862.368 58.4369C863.968 54.6769 863.488 51.317 861.728 47.797C851.728 28.197 822.288 21.0769 805.328 40.4369C802.448 43.7169 803.328 47.557 805.248 50.357C809.408 56.357 813.648 62.597 819.008 67.477C826.368 74.197 831.888 81.9568 837.168 90.3568C844.528 102.117 852.848 112.837 867.248 118.197C876.368 121.557 884.688 127.797 892.208 134.997C904.688 147.077 908.368 162.117 910.528 178.037C912.288 190.997 914.448 203.797 920.368 215.717C925.488 225.957 930.448 236.437 934.368 247.157C937.728 256.277 938.848 266.197 942.128 275.397C944.928 283.317 944.848 290.677 942.208 298.357C937.328 312.437 928.048 321.797 913.088 324.677C906.768 325.877 900.368 326.517 894.208 327.957C892.208 328.437 889.648 330.437 889.008 332.277C885.968 341.397 883.568 350.837 880.688 359.957C878.288 367.557 875.968 375.237 872.688 382.437C866.928 395.157 860.448 407.477 854.288 420.037C851.968 424.837 849.888 429.797 847.088 434.277C843.648 439.877 831.408 440.997 826.768 436.277C825.328 434.757 824.128 432.357 823.968 430.277C823.328 420.357 823.568 410.357 822.688 400.517C821.888 390.917 821.408 381.237 817.408 372.117C815.888 368.597 815.888 364.277 815.488 360.357C814.528 350.997 813.888 341.637 812.848 332.357C812.528 329.717 811.328 327.077 810.448 324.517C809.888 322.917 808.768 321.317 808.848 319.797C808.928 317.797 809.328 314.677 810.608 314.037C812.048 313.317 815.168 314.037 816.688 315.237C823.088 320.277 825.568 327.477 826.608 335.317C827.728 343.877 828.608 352.437 829.808 360.997C830.368 365.397 831.088 369.797 832.288 373.957C832.768 375.797 834.688 377.237 835.968 378.917C837.168 377.477 838.848 376.277 839.568 374.677C844.688 363.157 845.488 350.597 848.128 338.437C849.648 331.317 852.528 324.517 855.168 317.637C857.248 312.197 862.128 309.237 867.168 307.477C872.848 305.477 879.008 304.837 885.008 303.717C887.728 303.157 890.528 303.077 893.168 302.357C904.608 299.317 908.768 291.877 906.928 280.117C903.648 258.757 894.688 239.797 885.088 220.677C879.328 209.157 874.528 196.757 873.888 183.317C873.248 171.717 871.488 160.037 865.728 149.957C862.208 143.877 856.208 138.757 850.368 134.517C840.528 127.317 829.888 121.157 819.568 114.517C818.608 113.877 817.488 112.997 817.088 111.877C811.488 98.5968 799.807 90.5168 790.287 80.5968C785.007 75.157 779.087 70.0369 772.847 65.7169C768.367 62.5969 763.007 60.3569 757.727 59.0769C748.207 56.7569 738.447 54.5169 728.687 53.9569C716.447 53.1569 704.767 57.077 694.447 63.237C685.327 68.757 676.687 75.397 669.007 82.9168C664.287 87.5568 661.247 94.3568 658.447 100.597C656.127 105.877 654.207 111.797 653.967 117.557C653.567 126.037 656.767 128.677 665.247 129.397C666.287 129.477 667.407 129.557 668.447 129.637L668.767 130.197Z" fill="black"/>
<path d="M788.048 402.518C788.608 420.678 783.808 435.158 777.408 449.238C774.208 456.198 771.248 463.318 767.728 470.118C765.088 475.318 762.128 480.358 758.688 485.078C749.488 497.718 741.408 510.998 738.688 526.678C737.968 530.838 737.808 535.398 738.768 539.478C741.408 550.918 739.248 561.798 736.128 572.678C735.568 574.758 735.568 577.158 735.648 579.318C735.808 585.638 736.688 591.957 736.128 598.197C735.408 606.197 738.688 611.717 744.928 615.717C750.208 619.077 755.888 621.878 761.488 624.758C776.688 632.518 792.208 639.798 807.088 648.118C829.568 660.758 850.288 676.117 868.528 694.277C884.288 709.957 901.328 724.598 914.768 742.598C924.768 756.118 934.768 769.557 940.288 785.637C945.328 800.44 949.248 815.72 946.528 831.4C945.248 838.84 941.008 846.04 937.008 852.6C929.008 865.48 917.968 875.4 905.328 883.64C886.768 895.72 868.608 908.44 849.568 919.8C838.288 926.52 825.808 931.4 813.568 936.44C798.528 942.6 783.248 948.52 767.888 953.8C756.848 957.56 745.408 960.44 734.048 963.24C729.888 964.28 725.488 964.36 721.248 964.44C719.968 964.44 718.688 963.24 717.488 962.6C718.448 961.56 719.328 960.12 720.528 959.56C740.768 950.2 761.248 941.32 781.328 931.56C801.968 921.56 822.368 911.08 842.448 899.96C864.848 887.48 885.248 872.36 902.688 853.16C920.528 833.56 922.128 809.16 911.968 786.438C899.168 757.798 877.088 737.238 855.328 716.038C843.408 704.438 830.848 693.637 816.368 685.077C798.368 674.437 780.848 662.918 762.528 652.918C752.368 647.398 740.768 644.437 730.048 639.957C721.968 636.597 713.888 633.158 706.368 628.678C703.568 626.998 702.048 622.518 700.928 618.998C696.608 605.638 698.368 592.197 701.328 578.837C702.928 571.797 704.448 564.677 706.448 557.717C708.368 551.077 708.048 544.438 705.888 538.118C702.848 529.238 703.888 520.597 705.488 511.717C707.248 501.797 711.888 493.318 717.328 484.998C724.208 474.438 731.568 464.118 737.488 452.998C744.208 440.438 749.888 427.238 755.248 413.958C757.808 407.478 758.608 400.278 760.048 393.318C761.328 387.478 762.288 381.558 763.728 375.718C764.608 372.198 766.208 368.038 770.208 368.278C773.168 368.438 776.528 370.998 778.768 373.318C787.008 382.278 788.368 393.398 788.048 402.518Z" fill="black"/>
<path d="M436.128 198.356C454.128 199.876 468.688 200.996 483.008 205.636C502.688 211.956 523.168 214.836 543.888 215.396C554.848 215.716 565.728 216.516 576.608 216.996C585.088 217.396 593.168 216.116 600.368 211.236C608.288 205.876 616.368 200.836 624.288 195.476C626.048 194.276 627.408 192.516 628.768 190.916C632.768 186.196 637.568 183.876 643.888 185.156C656.368 187.716 668.768 190.596 681.328 192.436C689.488 193.636 698.048 194.676 705.968 193.316C714.368 191.876 722.288 187.316 728.208 180.836C734.608 173.876 740.368 166.356 746.208 158.836C754.608 147.876 762.768 136.676 771.168 125.716C773.568 122.596 777.728 122.756 782.448 125.796C785.568 127.796 787.008 132.356 785.088 136.036C781.408 143.156 777.488 150.116 773.488 156.996C767.728 166.836 762.368 176.836 755.808 186.116C751.968 191.636 746.768 196.676 741.168 200.356C732.128 206.276 722.528 211.556 712.608 215.956C701.888 220.756 690.288 219.796 678.928 218.516C670.208 217.556 661.568 216.196 652.928 214.596C647.408 213.556 643.808 216.516 640.208 219.636C631.808 227.076 622.848 233.636 612.208 237.156C602.768 240.276 593.008 242.916 583.248 244.196C568.928 245.956 554.368 247.156 540.048 243.636C531.408 241.476 522.768 239.076 514.048 236.996C500.608 233.796 487.248 230.196 473.648 227.636C460.688 225.156 448.048 227.716 435.808 232.596C428.928 235.316 421.888 237.396 414.848 239.636C408.848 241.556 402.768 243.316 396.688 244.836C383.408 248.036 370.048 250.916 356.768 254.196C342.768 257.636 328.448 260.756 316.048 268.436C306.368 274.436 296.288 280.836 288.688 289.156C279.648 298.996 269.248 307.716 262.608 319.876C257.728 328.756 253.088 337.716 248.608 346.756C243.568 356.676 238.928 367.156 230.608 375.236C226.928 378.756 217.168 380.196 214.048 376.356C212.048 373.876 210.848 370.356 210.448 367.156C209.568 358.516 208.288 349.716 209.008 341.076C209.968 328.436 214.688 316.516 220.048 305.076C228.368 287.236 240.128 272.036 256.608 260.836C265.888 254.516 274.368 246.916 284.288 241.876C294.928 236.516 306.448 232.676 318.048 229.876C336.848 225.316 356.048 222.356 374.928 218.196C382.128 216.596 388.928 213.556 395.888 210.996C402.368 208.596 408.608 205.476 415.168 203.476C423.088 201.236 431.168 199.636 436.128 198.356Z" fill="black"/>
<path d="M137.328 842.68C138.368 844.44 139.648 846.12 140.528 848.04C151.008 870.52 165.408 890.36 181.488 909.24C198.128 928.84 216.048 947 235.568 963.4C247.808 973.64 261.008 982.84 274.368 991.56C288.288 1000.6 303.008 1008.36 317.168 1017.08C331.488 1025.88 347.488 1030.84 363.008 1036.44C379.648 1042.44 396.608 1047.8 413.808 1051.88C433.408 1056.52 453.248 1060.52 473.248 1062.92C496.768 1065.64 520.528 1067.56 544.208 1067.48C571.728 1067.32 599.328 1065.72 626.528 1060.76C641.008 1058.12 655.728 1056.36 670.208 1053.48C679.568 1051.64 688.528 1048.04 697.808 1045.96C724.128 1039.96 748.448 1029.16 772.448 1017.08C795.728 1005.4 815.808 989.56 836.048 973.72C850.688 962.28 865.728 951.16 879.248 938.36C895.008 923.48 909.248 907.08 924.048 891.24C927.008 888.12 929.488 884.52 932.368 881.4C933.488 880.2 935.168 879.56 936.608 878.68C937.168 879.08 937.728 879.4 938.288 879.8C936.448 884.68 934.928 889.72 932.688 894.36C920.768 919.24 903.648 940.44 884.048 959.56C869.968 973.24 855.408 986.6 840.048 998.92C825.328 1010.76 809.728 1021.56 793.888 1031.8C785.168 1037.48 775.408 1041.64 765.648 1045.4C743.248 1053.96 720.928 1063.16 697.888 1069.64C677.088 1075.48 655.408 1078.6 633.968 1082.04C590.928 1088.92 547.568 1091.4 504.128 1089.64C487.408 1089 470.848 1085.72 454.208 1083.16C425.248 1078.76 396.848 1072.04 369.168 1062.2C362.048 1059.64 354.768 1057.56 347.488 1055.64C328.848 1050.68 312.288 1041 295.328 1032.28C263.888 1016.04 236.688 993.88 210.848 969.96C202.928 962.6 194.608 955.72 186.928 948.28C182.848 944.36 179.568 939.64 175.968 935.24C171.728 930.12 167.488 925.08 163.328 919.96C160.128 916.04 156.528 912.28 154.288 907.8C147.408 893.96 138.208 881 136.608 865C135.888 857.72 135.488 850.44 135.008 843.24C135.888 843.08 136.608 842.84 137.328 842.68Z" fill="black"/>
<path d="M136.848 786.756C138.128 769.316 145.808 748.196 159.648 729.316C169.408 715.956 180.848 704.356 193.728 693.796C207.648 682.436 220.368 669.636 232.768 656.596C237.968 651.076 241.808 643.716 244.688 636.596C249.888 623.876 256.928 611.636 259.088 597.796C260.048 591.476 260.048 584.916 261.088 578.596C262.608 568.916 264.288 559.236 266.608 549.716C269.488 537.796 273.168 526.116 276.288 514.196C277.408 509.956 277.888 505.476 278.448 501.156C279.488 494.036 277.088 487.716 273.008 482.116C260.208 464.276 259.568 444.436 263.248 423.796C264.288 418.036 264.448 411.956 266.608 406.676C269.648 398.996 274.448 392.116 277.728 384.596C280.288 378.756 282.128 372.676 288.048 369.316C290.608 367.876 294.448 365.796 296.528 366.756C299.488 368.036 303.008 371.716 303.168 374.596C303.648 381.316 303.248 388.436 301.408 394.916C296.448 412.596 295.648 430.596 297.488 448.436C298.608 459.716 303.728 470.516 306.848 481.556C308.128 486.116 309.488 490.756 309.648 495.476C310.048 506.436 310.048 517.396 309.648 528.276C309.488 531.876 307.648 535.476 306.288 538.996C303.408 546.596 300.128 554.036 297.248 561.556C291.168 577.636 287.888 594.356 284.288 611.076C282.128 620.836 278.528 630.196 275.408 639.716C273.008 647.156 270.208 654.516 267.808 661.956C265.888 667.876 262.768 672.436 257.248 675.876C243.328 684.436 229.968 693.716 218.448 705.396C209.088 714.916 199.328 724.036 189.648 733.316C177.888 744.676 169.648 758.516 163.808 773.396C155.888 793.396 160.288 811.88 175.648 827.16C193.008 844.36 212.288 859.08 233.088 871.88C253.248 884.28 273.088 897.32 293.728 909C307.728 916.92 322.608 923.56 337.408 929.88C355.888 937.88 374.608 945.32 393.488 952.36C408.928 958.04 424.688 962.76 440.368 967.96C442.288 968.6 444.288 969.08 445.968 970.12C447.088 970.76 447.808 972.2 448.768 973.32C447.488 974.04 446.208 975.56 445.008 975.48C440.128 975.16 435.168 974.92 430.448 973.72C410.768 968.76 391.088 963.72 371.488 958.2C330.128 946.52 291.008 929.56 253.728 907.96C227.248 892.6 202.048 875.64 178.688 855.96C169.248 848.04 159.808 840.2 151.008 831.64C140.368 820.84 136.448 807.48 136.848 786.756Z" fill="black"/>
<path d="M460.128 538.996C461.488 527.316 461.168 516.836 464.928 506.516C467.968 498.276 468.048 488.996 469.808 480.276C470.208 478.116 471.568 475.716 473.168 474.356C473.808 473.796 477.008 475.476 478.288 476.836C482.848 481.636 488.288 483.716 494.768 483.716C516.448 483.636 538.208 484.676 559.808 483.316C579.088 482.116 598.688 480.836 616.768 473.076C629.008 467.796 640.848 461.476 652.528 454.996C658.368 451.716 663.408 446.996 668.848 442.996C672.288 440.436 675.968 439.556 679.328 442.836C682.448 445.876 681.888 449.716 679.728 452.996C671.248 465.956 667.408 480.676 662.768 495.076C661.248 499.716 660.768 504.676 660.128 509.556C659.888 511.156 660.208 513.076 661.008 514.436C670.848 531.716 669.648 549.636 664.048 567.636C660.608 578.756 659.888 589.956 660.048 601.396C660.048 605.316 659.248 609.316 658.128 613.076C657.328 615.956 655.488 618.116 651.648 617.476C641.488 615.636 631.328 613.956 621.168 612.436C607.968 610.516 594.688 607.716 581.408 607.316C558.848 606.676 536.208 607.236 513.568 608.116C504.128 608.436 495.888 606.756 488.608 600.836C487.168 599.716 485.728 598.356 484.928 596.756C477.248 581.796 467.648 567.716 462.608 551.476C461.328 547.076 460.848 542.436 460.128 538.996ZM636.128 505.956L637.008 505.716C637.008 505.076 636.928 504.436 637.008 503.876C638.448 496.276 636.368 495.316 628.448 497.716C617.888 500.996 607.168 504.276 596.288 506.036C579.888 508.676 563.328 510.756 546.768 511.796C532.208 512.756 517.408 513.156 502.928 511.396C493.568 510.276 487.008 514.756 488.128 524.996C489.408 536.596 490.768 548.196 492.208 559.796C493.008 566.116 496.528 570.516 502.288 573.156C506.048 574.916 509.568 577.316 513.488 578.516C518.688 580.196 524.128 581.876 529.488 581.956C546.848 582.196 564.368 580.916 581.728 581.716C598.448 582.516 615.088 585.156 631.648 587.396C635.728 587.956 637.168 586.996 637.728 582.996C639.328 572.036 641.168 561.156 643.088 550.276C644.528 541.956 645.008 533.956 641.568 525.796C639.088 519.476 637.888 512.596 636.128 505.956Z" fill="black"/>
<path d="M440.048 604.038C440.528 611.638 439.888 612.678 432.208 614.278C415.808 617.718 399.168 620.278 383.008 624.598C367.728 628.678 353.008 634.678 337.888 639.558C333.168 641.078 328.128 642.198 323.168 642.838C317.408 643.478 313.808 640.278 314.368 634.438C314.848 628.838 316.848 623.398 318.128 617.958C321.328 604.358 324.288 590.678 327.728 577.158C330.368 567.078 333.728 557.158 336.528 547.078C337.568 543.398 338.768 539.558 338.768 535.798C338.768 523.798 345.008 514.678 352.368 506.278C360.368 497.078 371.168 491.718 381.568 485.638C391.168 480.038 399.728 472.598 408.288 465.318C410.608 463.398 411.808 459.478 412.208 456.278C413.328 446.838 420.128 442.038 426.848 437.238C427.728 436.598 430.288 437.078 431.168 437.958C432.768 439.478 434.048 441.558 434.928 443.638C439.408 454.678 440.048 465.398 433.968 476.278C429.168 484.838 425.248 493.878 420.768 502.598C414.928 513.958 415.008 524.598 421.888 535.958C425.808 542.438 426.928 550.598 429.088 558.118C430.768 564.038 432.048 570.038 433.648 575.878C436.128 585.158 438.768 594.357 441.328 603.637L440.048 604.038ZM389.248 512.918L388.528 511.798C386.528 513.238 384.128 514.278 382.688 516.118C376.368 524.518 369.888 532.918 364.368 541.878C359.408 549.798 355.248 558.278 354.128 567.878C352.768 579.318 351.488 590.757 350.208 602.197C349.568 607.877 351.248 609.238 356.208 606.838C370.448 599.798 385.488 595.558 401.168 593.878C405.168 593.478 406.448 591.478 407.648 588.038C411.328 577.078 407.888 566.918 403.568 557.318C399.968 549.398 394.288 542.518 390.128 534.838C388.368 531.478 387.408 527.398 387.248 523.638C387.088 519.958 388.528 516.438 389.248 512.918Z" fill="black"/>
<path d="M959.728 1363.48C966.208 1366.2 972.128 1368.28 977.728 1371C985.248 1374.68 988.048 1381.56 988.688 1389.56C988.768 1390.44 987.888 1391.88 987.008 1392.28C983.648 1393.64 977.168 1391.8 974.688 1389C973.408 1387.48 971.888 1386.04 970.848 1384.44C965.648 1376.36 957.888 1374.68 949.088 1375.88C941.008 1376.92 932.928 1378.28 924.848 1379.24C921.328 1379.64 919.168 1381.24 917.888 1384.36C917.328 1385.8 916.608 1387.16 915.728 1388.44C911.408 1394.2 905.088 1393.88 901.728 1387.56C895.728 1376.28 895.088 1364.04 895.648 1351.64C895.808 1348.04 898.528 1346.28 901.888 1345.88C917.648 1344.04 933.328 1342.04 949.088 1340.84C954.608 1340.44 960.448 1341.72 965.808 1343.4C973.168 1345.72 974.048 1351 968.528 1356.2C965.888 1358.6 962.928 1360.76 959.728 1363.48ZM947.088 1353.64C946.768 1353.16 946.528 1352.6 946.208 1352.12C940.128 1352.12 934.048 1351.88 927.968 1352.2C923.888 1352.44 919.568 1353 915.808 1354.6C913.488 1355.64 911.968 1358.76 910.128 1360.92C912.528 1362.76 914.608 1365.32 917.328 1366.36C919.408 1367.16 922.288 1366.6 924.528 1365.72C930.528 1363.4 936.368 1360.68 942.128 1357.8C944.048 1356.84 945.488 1355.08 947.088 1353.64Z" fill="black"/>
<path d="M323.008 1363.64C328.368 1365.56 332.848 1367 337.168 1368.76C346.048 1372.36 351.328 1378.76 352.288 1388.52C352.608 1391.4 351.568 1392.36 348.768 1392.44C343.888 1392.6 339.728 1391.64 336.848 1387.08C330.208 1376.68 320.768 1373.64 308.928 1376.28C302.368 1377.72 295.568 1378.28 288.848 1379C285.488 1379.4 283.008 1380.52 281.728 1383.88C281.168 1385.32 280.368 1386.68 279.488 1387.88C275.088 1394.2 268.448 1393.72 265.008 1386.84C259.408 1375.72 258.768 1363.8 259.088 1351.72C259.168 1347.96 262.048 1346.04 265.568 1345.64C281.008 1343.88 296.448 1341.8 311.888 1340.68C317.408 1340.28 323.248 1341.4 328.688 1343C337.008 1345.48 337.888 1351.08 331.328 1356.84C329.008 1359.08 326.368 1361 323.008 1363.64ZM310.448 1353.4C310.208 1352.92 310.048 1352.36 309.808 1351.8C304.688 1351.8 299.488 1351.48 294.368 1351.88C289.488 1352.28 284.608 1353.08 279.808 1354.28C276.688 1355.08 273.408 1356.84 273.808 1360.76C274.288 1364.68 277.488 1366.2 281.168 1366.44C283.008 1366.6 285.008 1366.68 286.608 1366.04C293.648 1363.08 300.608 1359.88 307.488 1356.52C308.768 1356.04 309.488 1354.52 310.448 1353.4Z" fill="black"/>
<path d="M823.248 1186.76C819.168 1192.2 815.968 1196.84 812.448 1201.16C808.128 1206.52 803.888 1212.12 799.008 1216.92C788.848 1226.84 776.688 1226.68 768.768 1216.84C765.648 1212.92 763.248 1208.36 760.528 1204.12C759.568 1202.68 758.608 1201.16 757.648 1199.72C757.168 1199.88 756.688 1199.96 756.208 1200.12C756.528 1203 756.848 1205.88 757.248 1208.76C758.368 1217.4 756.208 1221.72 748.768 1225.88C746.048 1227.4 744.288 1226.92 743.808 1223.8C743.248 1219.88 742.608 1215.88 742.448 1211.88C742.208 1204.84 742.368 1197.72 742.368 1190.6C742.368 1183.32 745.488 1179.56 752.608 1178.2C761.248 1176.52 765.328 1179.88 768.208 1190.6C769.488 1195.16 770.928 1199.8 773.008 1203.96C775.808 1209.48 780.288 1211.08 785.168 1207.48C791.888 1202.52 797.888 1196.52 803.968 1190.76C806.448 1188.44 808.608 1185.8 810.608 1183.08C813.568 1179.16 817.328 1177.4 822.128 1177.4C822.848 1177.4 823.888 1177.48 824.368 1177C828.768 1172.68 831.168 1176.2 832.688 1179.56C834.928 1184.52 837.168 1189.8 837.808 1195.16C838.768 1203.8 838.608 1212.68 838.688 1221.4C838.688 1226.76 836.368 1229.16 831.728 1229.32C827.408 1229.48 823.968 1226.36 823.808 1221.48C823.648 1217.08 824.368 1212.6 824.528 1208.12C824.768 1203.08 824.928 1197.96 824.848 1192.92C825.008 1191.32 824.048 1189.64 823.248 1186.76Z" fill="black"/>
<path d="M467.568 1356.2C480.528 1356.2 492.208 1356.2 503.968 1356.2C503.488 1362.84 498.368 1367.88 491.568 1368.44C486.688 1368.84 481.728 1368.52 476.848 1368.52C475.168 1368.52 473.248 1367.8 471.888 1368.44C469.968 1369.24 467.408 1370.84 467.088 1372.44C466.768 1373.96 468.848 1377 470.368 1377.48C474.608 1378.76 479.088 1379.4 483.488 1379.48C492.288 1379.72 501.088 1379.8 509.168 1383.88C510.448 1384.52 511.568 1385.48 512.768 1386.28C512.768 1386.84 512.768 1387.4 512.688 1387.96C507.728 1389 502.768 1390.68 497.728 1391C485.728 1391.64 473.728 1391.88 461.728 1391.88C456.688 1391.88 452.448 1389.07 450.128 1384.59C443.728 1372.35 440.768 1359.24 441.488 1345.4C441.648 1342.6 443.008 1339.72 444.288 1337.16C447.168 1331.64 449.328 1330.6 454.448 1334.2C464.288 1341.24 474.368 1338.19 484.608 1336.35C490.208 1335.39 495.328 1335.95 499.408 1340.59C502.608 1344.19 502.448 1345.47 497.648 1346.59C492.848 1347.71 487.968 1348.2 483.088 1348.84C475.888 1349.88 471.488 1351.64 467.568 1356.2Z" fill="black"/>
<path d="M652.848 1387.8C647.008 1389.08 642.208 1390.76 637.328 1391.08C625.168 1391.72 613.008 1392.12 600.848 1391.8C592.528 1391.56 588.528 1385.08 586.368 1378.12C583.808 1369.8 582.128 1361.16 580.688 1352.52C579.568 1345.88 581.488 1339.72 585.728 1334.36C587.408 1332.28 589.488 1331.32 591.728 1333C601.808 1340.76 612.768 1339.08 623.888 1336.52C630.048 1335.08 635.408 1336.44 639.648 1341.56C641.888 1344.28 641.168 1345.8 638.128 1346.44C633.168 1347.48 628.128 1348.04 623.088 1349C619.168 1349.8 615.248 1350.68 611.488 1351.88C610.048 1352.36 608.848 1353.72 607.888 1355.8C609.488 1355.96 611.008 1356.2 612.608 1356.2C621.248 1356.2 629.888 1356.12 638.448 1356.28C639.968 1356.28 641.568 1357.24 643.088 1357.72C642.448 1359.4 642.208 1361.32 641.168 1362.6C637.728 1367 632.928 1368.92 627.408 1368.92C623.088 1368.92 618.768 1368.6 614.528 1368.44C613.168 1368.44 611.488 1368.04 610.448 1368.6C608.688 1369.56 606.368 1371.08 606.128 1372.68C605.888 1374.12 607.808 1377 609.328 1377.4C613.648 1378.6 618.288 1379.4 622.848 1379.56C631.488 1379.8 640.128 1379.96 648.128 1383.8C648.928 1384.2 649.808 1384.6 650.528 1385.16C651.088 1385.4 651.408 1385.96 652.848 1387.8Z" fill="black"/>
<path d="M213.888 1355.8C215.328 1355.88 216.768 1356.04 218.208 1356.04C227.008 1356.04 235.808 1356.04 244.528 1356.12C245.968 1356.12 247.328 1356.92 248.768 1357.4C248.288 1358.92 248.208 1361.08 247.168 1361.8C243.808 1364.28 240.288 1367.24 236.448 1368.12C231.648 1369.24 226.368 1368.36 221.328 1368.36C219.488 1368.36 217.408 1367.8 215.888 1368.52C214.208 1369.32 212.208 1371.08 211.888 1372.76C211.648 1374.04 213.488 1376.84 214.848 1377.16C219.248 1378.36 223.888 1378.68 228.368 1379.4C236.768 1380.76 245.248 1381.96 253.648 1383.48C255.088 1383.72 256.288 1385.16 258.368 1386.52C252.448 1390.2 246.608 1390.52 240.928 1390.92C231.408 1391.64 221.888 1391.56 212.368 1391.72C200.448 1391.88 195.328 1389.08 191.968 1377.8C189.088 1368.2 187.408 1358.04 186.608 1348.04C186.288 1343.64 189.248 1338.84 191.168 1334.44C192.288 1331.8 195.088 1331.08 197.408 1332.84C207.488 1340.6 218.448 1338.76 229.568 1336.28C235.328 1335 240.528 1336.04 244.688 1340.76C247.408 1343.88 247.248 1345.48 243.168 1346.44C238.208 1347.56 233.168 1348.04 228.128 1348.76C222.848 1349.56 217.648 1350.44 213.568 1354.12C213.728 1354.76 213.808 1355.32 213.888 1355.8Z" fill="black"/>
<path d="M828.688 1348.6C828.688 1341.96 828.688 1335.32 828.688 1328.76C828.688 1323.24 833.728 1319.16 839.008 1320.76C839.968 1321 840.768 1323.08 840.848 1324.36C841.408 1332.6 841.408 1341 842.368 1349.16C843.088 1355.4 844.528 1361.56 846.368 1367.56C848.208 1373.4 851.088 1374.76 857.008 1373.4C861.968 1372.28 866.768 1370.68 871.728 1369.56C874.608 1368.84 875.088 1367.24 874.928 1364.52C874.048 1350.6 873.568 1336.6 872.768 1322.6C872.528 1318.84 873.888 1317.32 877.728 1317.48C888.848 1317.8 887.488 1315.88 887.568 1327.32C887.568 1329.16 887.648 1331 887.488 1332.84C886.368 1347.56 888.768 1361.96 892.128 1376.2C893.248 1381.08 892.608 1385.64 890.448 1390.12C889.328 1392.6 887.808 1393.64 885.008 1392.44C880.608 1390.6 876.208 1388.28 871.648 1387.56C865.888 1386.6 859.888 1386.84 853.968 1386.84C851.248 1386.84 848.528 1387.88 845.728 1388.04C837.488 1388.6 830.688 1383.56 829.728 1375.32C828.688 1366.52 828.688 1357.56 828.208 1348.68L828.688 1348.6Z" fill="black"/>
<path d="M666.127 1332.36C669.807 1339.24 673.327 1346.12 677.087 1352.84C680.927 1359.64 684.447 1366.68 689.167 1372.92C691.807 1376.36 696.127 1379.16 700.207 1380.84C709.887 1384.76 716.607 1380.36 719.407 1368.76C721.167 1361.4 722.207 1353.96 724.127 1346.68C725.007 1343.24 726.927 1339.8 729.087 1336.92C731.567 1333.56 734.607 1334.36 735.727 1338.44C736.207 1340.12 736.287 1342.2 735.807 1343.88C733.327 1352.76 734.367 1361.64 735.647 1370.44C737.887 1386.04 729.807 1395.8 714.207 1396.68C701.647 1397.4 691.087 1392.2 681.407 1385.08C678.207 1382.76 676.367 1381.72 673.887 1385.88C671.887 1389.32 662.447 1391.8 658.767 1390.28C657.727 1389.8 656.607 1388.04 656.607 1386.84C657.007 1373 657.247 1359.16 658.527 1345.4C658.927 1340.92 662.127 1336.68 664.047 1332.36C664.687 1332.36 665.407 1332.36 666.127 1332.36Z" fill="black"/>
<path d="M121.008 1349C121.008 1341.88 120.928 1334.84 121.008 1327.72C121.088 1323 127.408 1318.84 131.568 1321C132.528 1321.48 132.928 1323.48 133.088 1324.84C134.128 1336.12 134.848 1347.48 135.968 1358.84C136.288 1361.88 137.328 1364.84 138.448 1367.64C140.768 1373.4 143.408 1374.76 149.648 1373.32C154.608 1372.2 159.408 1370.68 164.288 1369.32C166.928 1368.6 167.248 1367.08 167.088 1364.52C166.288 1349.96 165.648 1335.4 165.168 1320.76C165.168 1319.72 166.608 1317.8 167.568 1317.72C170.768 1317.32 174.048 1317.24 177.248 1317.72C178.288 1317.88 179.728 1320.28 179.728 1321.64C179.968 1329.32 180.208 1337.08 179.728 1344.68C179.008 1354.76 182.208 1364.12 183.968 1373.8C185.008 1379.32 185.408 1384.76 182.608 1390.04C181.248 1392.52 179.888 1393.48 177.088 1392.28C172.688 1390.44 168.288 1388.12 163.728 1387.32C157.968 1386.36 151.968 1386.68 146.048 1386.68C143.968 1386.68 141.808 1387.48 139.728 1387.72C129.648 1388.84 122.368 1383.48 121.488 1373.32C120.768 1365.24 121.328 1357 121.328 1348.84H121.008V1349Z" fill="black"/>
<path d="M991.328 1382.84C992.368 1378.84 993.728 1372.84 995.488 1366.92C999.408 1353.8 1003.33 1340.68 1007.65 1327.72C1010.93 1317.72 1020.69 1316.12 1027.33 1324.6C1031.01 1329.24 1033.97 1334.6 1036.61 1339.96C1043.09 1353.24 1049.33 1366.6 1055.17 1380.12C1056.13 1382.36 1055.81 1386.36 1054.29 1388.04C1052.77 1389.72 1049.09 1390.12 1046.53 1389.88C1043.73 1389.64 1040.93 1388.28 1038.29 1387.08C1027.97 1382.2 1017.73 1382.76 1007.33 1386.84C1004.29 1388.04 1001.33 1389.16 998.288 1390.2C992.928 1392.12 991.248 1390.76 991.328 1382.84ZM1019.81 1373.72C1023.41 1373 1027.01 1372.2 1030.61 1371.56C1033.41 1371 1034.13 1369.4 1033.33 1366.84C1030.85 1358.68 1026.13 1351.96 1020.13 1345.96C1019.57 1345.32 1016.53 1345.8 1016.29 1346.36C1014.05 1351.72 1011.57 1357.16 1010.45 1362.76C1008.85 1371.24 1011.17 1373.48 1019.81 1373.72Z" fill="black"/>
<path d="M234.048 1181C227.728 1186.44 222.128 1191.24 215.728 1196.68C219.888 1197.08 223.168 1197.24 226.368 1197.8C230.448 1198.52 234.608 1199.08 238.368 1200.6C243.088 1202.44 243.488 1205.08 240.448 1209.32C239.728 1210.28 238.928 1211.24 237.968 1212.04C229.648 1219.24 220.128 1224.6 209.728 1228.12C206.928 1229.08 203.648 1228.76 200.688 1228.6C199.568 1228.52 198.208 1227.4 197.648 1226.36C197.408 1225.88 198.608 1224.12 199.488 1223.64C205.488 1220.28 211.728 1217.24 217.728 1213.88C221.248 1211.88 224.448 1209.56 227.808 1207.4C227.568 1206.6 227.408 1205.88 227.168 1205.08C224.608 1205.08 221.968 1204.84 219.488 1205.16C214.448 1205.72 209.408 1206.44 204.448 1207.4C198.848 1208.44 195.008 1212.28 191.568 1216.52C189.728 1218.76 187.728 1220.92 185.648 1223C183.168 1225.4 181.248 1225.8 179.568 1221.8C176.688 1214.92 175.648 1207.72 176.688 1200.52C177.488 1194.52 177.008 1189.24 173.648 1184.28C171.808 1181.48 172.528 1179.64 175.728 1178.84C193.008 1174.12 210.368 1171.56 227.888 1177.72C229.808 1178.28 231.328 1179.48 234.048 1181ZM215.408 1185.32C209.648 1182.28 193.728 1183.24 189.968 1186.92C188.688 1188.12 188.128 1190.76 188.448 1192.6C188.688 1193.88 191.088 1195.96 192.128 1195.72C200.448 1194.04 208.368 1191.24 215.408 1185.32Z" fill="black"/>
<path d="M587.888 1205C583.408 1205.24 578.848 1205.4 574.368 1205.8C565.008 1206.6 556.608 1209.4 551.408 1218.2C550.928 1219 550.288 1219.72 549.568 1220.28C547.408 1221.88 545.168 1223.4 542.928 1224.92C541.648 1222.44 539.488 1220.04 539.168 1217.4C538.368 1210.6 538.768 1203.64 537.968 1196.84C537.488 1192.44 536.048 1187.96 534.368 1183.88C533.248 1181.16 533.488 1179.8 536.208 1179C553.648 1174.2 571.168 1171.56 588.848 1177.72C590.608 1178.36 592.208 1179.56 594.928 1181.08C588.528 1186.52 582.928 1191.24 576.528 1196.76C580.688 1197.24 584.128 1197.4 587.488 1197.96C591.248 1198.6 595.168 1199 598.688 1200.36C603.968 1202.36 605.168 1206.2 600.928 1209.8C594.528 1215.24 587.408 1219.8 580.288 1224.2C576.448 1226.52 571.808 1227.64 567.408 1229C566.048 1229.48 564.288 1229.4 562.848 1229C561.328 1228.6 559.968 1227.64 558.528 1226.84C559.568 1225.48 560.288 1223.56 561.648 1222.84C567.248 1219.72 573.168 1217 578.768 1213.96C582.288 1212.04 585.488 1209.64 588.768 1207.4C588.448 1206.52 588.128 1205.8 587.888 1205ZM576.208 1185.32C570.528 1182.36 554.208 1183.32 550.688 1186.84C549.488 1188.12 548.928 1190.76 549.248 1192.52C549.488 1193.8 551.888 1195.88 552.928 1195.72C561.248 1194.04 569.168 1191.32 576.208 1185.32Z" fill="black"/>
<path d="M576.687 1322.92C580.207 1329.96 578.367 1336.19 575.567 1342.11C569.087 1355.87 562.208 1369.48 555.408 1383.08C554.608 1384.68 553.408 1386.19 552.288 1387.63C546.768 1394.27 537.648 1393.71 534.288 1385.87C529.168 1374.03 525.007 1361.8 520.447 1349.72C518.527 1344.52 516.607 1339.32 514.687 1334.2C513.087 1330.04 513.887 1328.84 518.207 1328.68C524.607 1328.44 530.207 1331.96 532.607 1338.2C535.647 1346.12 538.367 1354.12 541.327 1362.04C541.727 1363.08 542.447 1364.04 543.087 1365.08C544.127 1364.28 545.488 1363.72 546.048 1362.68C550.368 1355.24 554.447 1347.64 558.767 1340.2C563.007 1332.76 568.367 1326.52 576.687 1322.92Z" fill="black"/>
<path d="M367.248 1183.72C371.248 1184.6 375.808 1185.16 380.208 1186.6C385.888 1188.44 386.688 1193 382.288 1197.16C380.928 1198.44 379.328 1199.4 377.968 1200.68C377.248 1201.32 376.208 1202.36 376.368 1203.08C376.528 1203.8 377.728 1204.52 378.608 1204.92C382.688 1206.76 386.928 1208.04 390.768 1210.28C396.048 1213.32 398.288 1218.6 399.088 1224.44C399.408 1227 398.448 1228.12 395.888 1228.28C392.208 1228.44 388.928 1227.64 387.088 1224.36C380.608 1212.92 370.608 1211.72 359.248 1214.28C356.688 1214.84 354.128 1215.64 351.568 1215.64C345.248 1215.64 340.928 1217.48 338.368 1223.96C336.048 1229.8 330.288 1229.8 326.928 1224.44C325.248 1221.72 323.808 1218.6 323.328 1215.56C322.288 1208.92 321.648 1202.2 321.248 1195.4C321.008 1192.04 322.608 1189.24 326.368 1188.84C339.728 1187 353.168 1185.4 367.248 1183.72ZM363.728 1195.56C355.248 1194.44 346.928 1193.48 338.848 1196.52C336.688 1197.32 335.248 1199.96 333.488 1201.8C335.728 1203.4 337.968 1206.44 340.128 1206.36C349.328 1206.2 356.928 1201.8 363.728 1195.56Z" fill="black"/>
<path d="M480.607 1222.28C491.087 1219.08 501.167 1216.04 511.247 1212.92C512.527 1212.52 513.807 1211.56 514.527 1210.52C515.247 1209.4 515.727 1207.48 515.247 1206.52C514.767 1205.56 512.767 1204.92 511.567 1205.08C509.647 1205.32 507.807 1206.28 505.887 1206.92C500.047 1208.84 495.008 1207.4 492.288 1203.32C490.768 1201.08 490.607 1199.24 493.727 1198.52C503.327 1196.28 512.847 1193.88 522.527 1191.96C524.687 1191.56 527.567 1192.2 529.487 1193.4C530.767 1194.28 532.127 1197.56 531.487 1198.6C527.727 1205.08 528.287 1211.88 528.847 1218.84C529.247 1225.08 528.447 1226.04 522.527 1224.76C510.847 1222.2 499.727 1224.84 488.447 1227.48C482.767 1228.84 476.527 1229.48 470.767 1228.76C459.247 1227.32 455.888 1219.24 460.048 1208.36C463.568 1199.16 470.687 1192.68 478.207 1186.68C484.127 1182.04 490.207 1177.48 496.527 1173.4C498.527 1172.12 502.287 1171.32 503.887 1172.36C506.767 1174.36 506.127 1178.28 503.807 1180.52C499.487 1184.84 494.607 1188.6 489.887 1192.6C484.927 1196.76 479.888 1200.76 474.928 1204.84C474.208 1205.4 473.727 1206.2 473.247 1207C471.247 1210.2 468.847 1213.96 471.487 1217.16C473.247 1219.48 477.007 1220.36 480.607 1222.28Z" fill="black"/>
<path d="M115.968 1348.92C114.928 1355.8 110.768 1359.56 105.648 1361.72C100.608 1363.88 95.168 1365.24 89.808 1366.28C83.808 1367.48 77.6476 1368.04 71.4876 1368.6C68.0476 1368.92 67.8076 1370.6 68.6076 1373.24C69.0876 1374.84 69.7276 1376.44 69.9676 1378.12C71.0876 1385.16 65.1677 1391.88 58.0477 1391.32C57.0877 1391.24 55.5677 1389.88 55.4077 1388.92C51.8877 1373.4 49.3277 1357.8 51.0077 1341.8C51.6477 1335.32 53.8876 1333.64 60.6876 1333.4C67.0076 1333.16 73.3276 1333.24 79.5676 1332.52C84.688 1331.88 89.728 1330.28 94.848 1329.08C100.928 1327.72 106.448 1328.68 110.928 1333.32C111.408 1333.8 111.408 1334.68 111.888 1335.96C105.728 1336.92 99.808 1337.56 93.968 1338.92C86.208 1340.76 78.6077 1343.16 71.0077 1345.4C69.8877 1345.72 68.6076 1346.44 67.9676 1347.4C66.9276 1348.92 65.3276 1351.16 65.8076 1352.36C66.4476 1353.96 68.8476 1355.88 70.4476 1355.88C76.6876 1355.96 83.088 1355.96 89.248 1354.92C96.368 1353.72 103.248 1351.4 110.288 1349.64C112.048 1349.32 113.808 1349.24 115.968 1348.92Z" fill="black"/>
<path d="M353.248 1331.08C361.728 1329.64 370.128 1327.8 378.608 1326.92C392.128 1325.48 404.608 1321 416.688 1315.08C421.808 1312.6 426.928 1310.12 431.968 1307.48C435.808 1305.48 438.128 1307.88 440.208 1310.28C440.528 1310.68 439.328 1313.4 438.288 1313.96C430.608 1318.12 422.768 1322.04 415.008 1325.96C413.088 1326.92 411.008 1327.56 409.088 1328.52C405.568 1330.2 403.008 1332.68 403.088 1337C403.248 1349.48 403.488 1361.88 403.568 1374.36C403.568 1382.84 401.088 1390.12 392.848 1394.28C388.768 1396.36 386.928 1395.8 386.688 1391.16C386.368 1382.92 386.848 1374.6 387.408 1366.36C387.808 1360.36 389.168 1354.52 389.648 1348.52C390.208 1341.08 387.648 1338.6 380.288 1338.92C375.968 1339.08 371.728 1339.56 367.408 1340.04C361.168 1340.76 355.088 1337.16 353.248 1331.08Z" fill="black"/>
<path d="M768.447 1381.48C769.487 1374.36 770.607 1367.08 771.567 1359.72C772.127 1355.16 772.607 1350.52 772.767 1345.96C772.847 1341.4 770.527 1339 765.967 1339C761.247 1339 756.447 1339.32 751.727 1339.88C746.607 1340.44 742.287 1339.32 738.687 1335.64C737.727 1334.6 737.327 1333.08 736.607 1331.88C737.807 1331.4 739.007 1330.76 740.287 1330.6C751.087 1328.76 761.887 1327.32 772.607 1325.24C787.407 1322.28 800.448 1314.68 813.968 1308.36C815.488 1307.64 817.408 1306.52 818.608 1307C820.608 1307.72 822.128 1309.64 823.888 1311.08C822.768 1312.36 821.888 1314.28 820.448 1315C811.568 1319.56 802.608 1324.12 793.487 1328.12C788.847 1330.2 786.047 1333.08 786.047 1338.12C786.047 1345 786.527 1351.96 786.447 1358.84C786.287 1366.92 786.287 1375.08 785.247 1383.08C784.527 1388.36 780.767 1392.28 775.647 1394.68C772.527 1396.12 770.607 1396.04 770.047 1392.28C769.487 1388.68 769.007 1385.24 768.447 1381.48Z" fill="black"/>
<path d="M603.968 1189.48C609.248 1183.56 612.208 1184.2 615.888 1190.2C620.048 1196.92 625.248 1203 630.208 1209.24C632.608 1212.2 634.768 1211.96 636.768 1208.2C641.408 1199.32 646.448 1190.68 651.328 1181.96C652.128 1180.52 653.088 1179.24 654.048 1177.88C659.488 1181.08 661.568 1185.48 659.168 1190.84C655.888 1198.12 651.968 1205.08 647.968 1211.96C644.128 1218.6 639.088 1224.76 636.128 1231.72C632.048 1241.32 629.568 1251.48 626.208 1261.4C624.608 1266.04 622.688 1270.6 620.688 1275.08C619.808 1277 618.768 1279.24 617.088 1280.36C613.808 1282.6 610.128 1284.2 606.528 1286.04C606.368 1282.52 605.488 1278.84 606.368 1275.56C607.728 1270.28 610.128 1265.24 612.288 1260.2C616.208 1251.32 620.368 1242.6 624.368 1233.8C626.288 1229.48 625.408 1225.4 623.088 1221.48C617.488 1212.28 612.048 1203 606.528 1193.72C605.728 1192.12 604.848 1190.76 603.968 1189.48Z" fill="black"/>
<path d="M165.487 1182.76C167.167 1193.48 168.847 1204.2 170.447 1214.92C170.687 1216.28 170.928 1217.64 170.928 1219C171.168 1227 168.128 1229.48 161.008 1226.52C152.688 1223.08 144.607 1221.64 135.487 1223.72C124.447 1226.2 118.207 1220.76 117.727 1209.08C117.247 1197.72 117.487 1186.28 117.567 1174.92C117.567 1171.24 119.248 1169 123.408 1168.6C126.928 1168.28 128.047 1169.48 128.207 1172.84C128.447 1180.2 128.688 1187.64 129.648 1194.92C130.288 1199.72 131.968 1204.44 133.648 1209C134.688 1211.96 137.327 1213.16 140.367 1212.52C144.847 1211.48 149.407 1210.52 153.727 1208.92C154.927 1208.44 156.048 1205.96 156.048 1204.44C155.728 1192.6 155.167 1180.76 154.687 1169C154.607 1166.28 155.967 1165.32 158.687 1165.32C166.607 1165.08 166.768 1165.16 166.768 1172.92C166.768 1176.12 166.768 1179.4 166.768 1182.6L165.487 1182.76Z" fill="black"/>
<path d="M402.848 1192.6C402.848 1186.6 402.848 1180.6 402.848 1174.6C402.848 1171.08 404.368 1169.32 407.968 1168.76C411.728 1168.2 413.008 1169.24 413.248 1173.32C413.728 1182.92 414.768 1192.6 415.888 1202.2C416.208 1204.68 417.488 1207.16 418.688 1209.48C420.128 1212.28 422.608 1213.4 425.648 1212.6C429.968 1211.56 434.368 1210.6 438.528 1209C439.808 1208.52 441.168 1206.12 441.168 1204.68C440.768 1193.16 440.208 1181.72 439.328 1170.2C438.928 1164.68 442.368 1165.4 445.808 1165.24C449.568 1165.08 452.128 1165.64 451.808 1170.36C451.488 1174.04 451.968 1177.72 451.728 1181.4C450.848 1192.76 453.248 1203.72 455.408 1214.68C456.048 1218.04 455.168 1221.88 454.448 1225.4C453.808 1228.36 451.648 1229.08 448.688 1227.72C445.168 1226.12 441.648 1224.36 437.968 1223.72C433.568 1222.92 428.928 1223.16 424.368 1223.24C422.208 1223.24 420.128 1224.04 417.968 1224.12C409.488 1224.76 403.968 1220.44 403.248 1211.88C402.768 1205.48 403.168 1199 403.168 1192.52H402.848V1192.6Z" fill="black"/>
<path d="M842.688 1219.88C844.048 1214.84 845.648 1207.8 847.648 1200.84C850.208 1192.12 852.928 1183.47 855.808 1174.91C856.928 1171.55 857.248 1167.31 862.128 1166.91C867.008 1166.43 871.008 1168.36 873.568 1172.44C876.688 1177.32 879.648 1182.44 882.208 1187.64C886.608 1196.6 890.608 1205.79 894.688 1214.91C895.248 1216.19 895.648 1217.48 895.968 1218.84C897.248 1225.16 893.648 1228.36 887.488 1226.36C885.328 1225.64 883.168 1224.68 881.168 1223.64C872.528 1219.24 863.968 1220.04 855.328 1223.64C853.008 1224.6 850.848 1225.72 848.528 1226.52C844.288 1227.88 842.528 1226.52 842.688 1219.88ZM863.968 1187.15C861.888 1194.11 859.808 1200.03 858.448 1206.03C857.728 1209.15 859.648 1212.03 863.248 1212.03C867.328 1212.03 871.488 1211.48 875.488 1210.6C876.528 1210.36 878.128 1207.8 877.808 1206.76C875.568 1199.4 871.488 1193.23 863.968 1187.15Z" fill="black"/>
<path d="M945.808 1190.28C945.808 1186.76 945.648 1183.16 945.888 1179.64C946.128 1175 950.208 1172.04 954.528 1173.32C955.648 1173.64 956.848 1175.32 957.008 1176.52C957.568 1180.12 957.888 1183.88 957.728 1187.56C957.488 1195.64 958.368 1203.4 960.928 1211.16C963.888 1220.12 961.888 1223.64 953.888 1226.76C951.328 1227.72 949.888 1227.32 948.928 1224.68C944.368 1212.68 944.368 1212.6 931.568 1213.16C925.568 1213.4 920.368 1215.16 918.448 1221.88C917.328 1225.8 914.368 1225 911.728 1223.72C907.008 1221.4 904.768 1217 904.048 1212.28C903.088 1206.6 902.848 1200.68 902.848 1194.84C902.848 1189.48 903.808 1184.12 903.968 1178.76C904.128 1175.8 905.248 1174.52 908.208 1174.76C910.928 1175 914.368 1173.64 914.928 1178.28C915.728 1184.68 916.768 1191 917.488 1197.48C918.048 1202.28 919.968 1205.24 924.768 1205.4C930.848 1205.48 937.008 1204.76 943.088 1203.88C944.208 1203.72 945.648 1201.4 945.808 1199.88C946.128 1196.76 945.808 1193.48 945.808 1190.28Z" fill="black"/>
<path d="M1056.61 1189.64C1056.61 1186.28 1056.61 1182.84 1056.61 1179.48C1056.61 1174.76 1059.65 1173.56 1063.57 1173.16C1067.81 1172.68 1067.73 1175.8 1068.05 1178.52C1068.29 1180.52 1068.69 1182.52 1068.61 1184.44C1067.97 1194.52 1069.33 1204.28 1072.37 1213.96C1074.53 1220.6 1069.81 1227 1062.77 1227.16C1061.73 1227.16 1060.29 1225.64 1059.73 1224.52C1058.77 1222.6 1058.45 1220.44 1057.81 1218.36C1056.77 1215 1054.29 1213.32 1050.85 1213.24C1046.69 1213.16 1042.53 1213.32 1038.45 1213.72C1033.97 1214.2 1030.61 1216.6 1029.41 1221.08C1028.21 1225.56 1025.41 1225.16 1022.29 1223.64C1017.57 1221.32 1014.93 1216.84 1014.69 1212.2C1014.13 1200.6 1014.53 1188.92 1014.93 1177.24C1014.93 1176.36 1018.05 1175.24 1019.81 1174.84C1022.61 1174.28 1025.01 1174.92 1025.49 1178.44C1026.29 1184.84 1027.41 1191.16 1028.05 1197.64C1028.53 1202.44 1031.17 1205.32 1035.57 1205.4C1041.49 1205.48 1047.49 1204.76 1053.33 1203.8C1054.61 1203.64 1056.13 1201.16 1056.37 1199.64C1056.93 1196.52 1056.61 1193.08 1056.61 1189.64Z" fill="black"/>
<path d="M14.6877 1215.24C22.1277 1218.28 28.7678 1218.68 35.4878 1217.16C42.8478 1215.48 50.1278 1213.64 57.4078 1211.64C60.5278 1210.84 62.8478 1211.48 64.7678 1213.88C67.5678 1217.4 67.0878 1221 62.8478 1222.36C56.6878 1224.2 50.3678 1225.88 43.9678 1226.28C32.7678 1227 21.5678 1227.24 10.3678 1226.68C1.24775 1226.28 -3.07229 1217.88 2.44771 1210.68C6.76771 1204.92 12.6078 1200.04 18.5278 1195.88C28.2078 1189.16 38.5277 1183.24 48.6877 1177.16C51.0077 1175.72 53.8878 1172.84 56.5278 1177.08C58.9278 1181 58.5278 1185.32 54.8478 1187.64C49.6478 1190.92 44.0478 1193.56 38.8478 1196.76C32.2078 1200.92 25.8078 1205.4 19.4878 1209.88C17.6478 1211.08 16.5277 1213.08 14.6877 1215.24Z" fill="black"/>
<path d="M1009.97 1200.28C1009.97 1212.44 1003.81 1221.96 993.248 1226.04C988.208 1227.96 985.808 1226.36 987.008 1221.16C987.968 1217.24 990.208 1213.56 992.048 1209.88C993.568 1206.68 995.488 1203.72 997.008 1200.52C999.328 1195.64 993.568 1184.44 988.048 1183.24C987.168 1183.08 985.328 1184.2 985.088 1185.08C983.488 1190.2 981.968 1195.4 981.168 1200.68C980.928 1202.44 982.928 1204.68 984.288 1206.36C988.048 1210.6 987.808 1213.72 983.168 1217C978.848 1220.04 972.848 1220.44 969.328 1217.8C965.408 1214.92 965.088 1211.24 966.848 1204.84C968.688 1198.2 969.888 1191.4 971.088 1184.6C972.608 1176.04 977.248 1172.04 986.048 1172.28C998.768 1172.6 1009.09 1183.24 1009.97 1197C1010.05 1198.12 1009.97 1199.16 1009.97 1200.28Z" fill="black"/>
<path d="M687.647 970.68C687.647 984.52 686.287 995.96 681.487 1006.68C680.847 1008.2 679.887 1009.88 678.607 1010.68C677.167 1011.48 674.847 1012.12 673.567 1011.48C672.367 1010.84 671.327 1008.44 671.567 1006.92C672.207 1001.72 673.327 996.6 674.447 991.48C678.527 973.08 674.447 956.52 663.807 941.16C662.127 938.76 660.527 936.2 659.647 933.56C658.047 928.76 660.287 923.4 664.207 921.64C668.527 919.64 673.887 921.24 676.927 925.32C682.127 932.2 684.367 940.2 685.487 948.44C686.527 956.6 687.087 964.76 687.647 970.68Z" fill="black"/>
<path d="M563.328 975.4C564.288 988.76 563.248 1001.88 558.128 1014.44C557.648 1015.72 557.248 1017.4 556.208 1018.04C554.288 1019.24 551.888 1020.28 549.808 1020.2C549.008 1020.2 547.488 1016.76 547.728 1015.08C548.368 1009.88 549.648 1004.84 550.768 999.72C554.528 981.32 550.448 964.68 539.568 949.56C538.288 947.8 537.088 946.04 536.208 944.04C534.048 939.24 535.808 933.16 539.728 930.84C544.128 928.28 550.368 930.04 553.568 934.68C559.088 942.68 561.248 951.72 562.288 961.16C562.768 965.8 563.008 970.6 563.328 975.4Z" fill="black"/>
<path d="M500.928 977.96C501.088 991.32 499.888 1003 494.928 1014.04C494.448 1015.16 494.048 1016.76 493.168 1017.16C491.248 1018.12 488.928 1019 486.928 1018.68C485.968 1018.52 484.687 1015.48 484.847 1013.88C485.247 1009.64 486.287 1005.4 487.327 1001.24C492.047 981.8 488.287 964.12 476.607 947.96C475.007 945.8 473.648 943.24 472.928 940.68C471.568 935.88 473.807 930.84 477.487 929.24C482.047 927.24 487.167 928.6 490.207 932.76C495.807 940.28 498.048 949.08 499.168 958.12C499.968 965.24 500.448 972.28 500.928 977.96Z" fill="black"/>
<path d="M627.968 979.88C627.648 992.52 626.368 1003.32 621.808 1013.48C621.328 1014.6 620.928 1016.2 620.048 1016.6C618.128 1017.56 615.888 1018.36 613.808 1018.2C613.008 1018.12 611.648 1015.24 611.808 1013.72C612.448 1008.52 613.648 1003.48 614.768 998.36C618.608 980.04 614.688 963.32 604.048 948.04C602.448 945.8 600.848 943.4 599.888 940.92C598.128 936.36 600.208 930.76 603.968 928.76C608.368 926.44 613.888 927.8 617.088 932.12C622.528 939.4 624.848 947.88 625.888 956.6C626.928 964.92 627.408 973.24 627.968 979.88Z" fill="black"/>
<path d="M87.088 1229.24C85.888 1229.24 84.608 1229.32 83.408 1229.24C73.3279 1228.2 67.8078 1224.52 71.8078 1212.36C73.1678 1208.2 71.8879 1203.08 71.4879 1198.36C71.1679 1193.8 70.2079 1189.24 70.1279 1184.68C70.1279 1182.52 70.928 1179.88 72.288 1178.36C74.128 1176.36 76.9279 1175.24 79.3279 1173.8C80.048 1175.88 81.248 1177.88 81.488 1179.96C82.688 1189.88 83.808 1199.8 84.688 1209.72C85.168 1215.72 86.608 1217.96 92.528 1218.44C97.568 1218.84 102.688 1218.92 107.728 1218.52C111.088 1218.28 113.088 1219.48 113.328 1222.36C113.408 1223.48 111.008 1225.72 109.408 1226.04C102.048 1227.64 94.608 1228.76 87.248 1230.04L87.088 1229.24Z" fill="black"/>
</g>
<defs>
<clipPath id="clip0_806_1527">
<rect width="1080" height="1400" fill="white"/>
</clipPath>
</defs>
</svg>
